# xmcd
#
# Track frame offsets: 
#        150
#        14847
#        34115
#        50842
#        69717
#        85097
#        99790
#        119487
#        135552
#        151252
#        164667
#        177100
#        189652
#        203997
#        214900
#        231847
#        243847
#        257272
#        270547
#        286385
#        298927
#
# Disc length: 4200 seconds
#
# Revision: 0
# Processed by: cddbd v1.4PL0 Copyright (c) Steve Scherf et al.
# Submitted via: ExactAudioCopy v0.90b3
#
DISCID=39106615
DTITLE=Merle Haggard - My Love Affair With Trains and The Roots Of My Ra
DTITLE=ising
DYEAR=1900
DGENRE=Country
TTITLE0=My Love Affair With Trains
TTITLE1=Union Station
TTITLE2=Here Comes The Freedom Train
TTITLE3=So Long Train Whistle
TTITLE4=The Silver Ghost
TTITLE5=No More Trains To Ride
TTITLE6=The Coming And The Going Of The Trains
TTITLE7=I Won't Give Up My Train
TTITLE8=Where Have All The Hobos Gone
TTITLE9=Railroad Lady
TTITLE10=The Hobo
TTITLE11=The Roots Of My Life
TTITLE12=What Have You Got Planned Tonight Diana
TTITLE13=The Waltz You Saved For Me
TTITLE14=Walk On The Outside
TTITLE15=Gamblin' Polka Dot Blues
TTITLE16=Cherokee Maiden
TTITLE17=Am I Standing In Your Way
TTITLE18=Colorado
TTITLE19=I Never Go Around Mirrors
TTITLE20=Mississippi Delta Blues
EXTD=
EXTT0=
EXTT1=
EXTT2=
EXTT3=
EXTT4=
EXTT5=
EXTT6=
EXTT7=
EXTT8=
EXTT9=
EXTT10=
EXTT11=
EXTT12=
EXTT13=
EXTT14=
EXTT15=
EXTT16=
EXTT17=
EXTT18=
EXTT19=
EXTT20=
PLAYORDER=
